<svg id="visual" viewBox="0 0 900 600" width="900" height="600" xmlns="http://www.w3.org/2000/svg" xmlns:xlink="http://www.w3.org/1999/xlink" version="1.1"><path d="M0 271L21.5 292.2C43 313.3 86 355.7 128.8 391.7C171.7 427.7 214.3 457.3 257.2 464C300 470.7 343 454.3 385.8 413.3C428.7 372.3 471.3 306.7 514.2 275C557 243.3 600 245.7 642.8 275.5C685.7 305.3 728.3 362.7 771.2 372.8C814 383 857 346 878.5 327.5L900 309L900 601L878.5 601C857 601 814 601 771.2 601C728.3 601 685.7 601 642.8 601C600 601 557 601 514.2 601C471.3 601 428.7 601 385.8 601C343 601 300 601 257.2 601C214.3 601 171.7 601 128.8 601C86 601 43 601 21.5 601L0 601Z" fill="#dc006a" stroke-linecap="round" stroke-linejoin="miter"></path></svg>